<svg xmlns="http://www.w3.org/2000/svg" width="1024" height="1024" viewBox="0 0 1024 1024" role="img" aria-label="Baki adaptive icon foreground, Bengali letter kha">
<circle cx="512" cy="512" r="408" fill="#faf6ef"/>
<!-- Glyph source: U+0996 BENGALI LETTER KHA (খ), font: KohinoorBangla-Bold. -->
<circle cx="512" cy="512" r="380" fill="none" stroke="#b8860b" stroke-width="14"/>
<path d="M 509 403 C 509 299 512 242 517 168 L 514 166 L 269 272 L 269 276 C 395 306 448 382 448 481 C 448 570 389 638 343 671 L 284 671 C 253 588 228 540 183 540 C 151 540 135 560 135 589 C 135 616 145 644 162 671 L 29 671 C 16 655 -1 622 -1 577 C -1 489 74 424 166 424 C 250 424 293 473 314 520 C 321 511 323 498 323 484 C 323 417 253 354 45 343 L 45 230 L 616 -17 L 703 84 L 647 108 L 647 562 L 747 562 L 747 671 L 647 671 L 647 773 L 509 773 Z" fill="#0d7c66" transform="translate(252.695 776.781) scale(0.695 -0.695)"/></svg>